<?xml version="1.0" encoding="UTF-8"?>
<svg width="232px" height="45px" viewBox="0 0 232 45" version="1.1" xmlns="http://www.w3.org/2000/svg" xmlns:xlink="http://www.w3.org/1999/xlink">
    <title>Diffbot-Design-System_diffbot-light-background</title>
    <g id="Visual-Assets" stroke="none" stroke-width="1" fill="none" fill-rule="evenodd">
        <g id="Logo-Assets" transform="translate(-645, -913)" fill="#19305A">
            <g id="diffbot-light-background" transform="translate(645, 912.9996)">
                <path d="M8.93999958,22.5007439 C8.97702042,16.4979496 11.3964977,10.7555828 15.6664352,6.53627685 C19.9363728,2.31697086 25.7071905,-0.0338387726 31.7099991,0.000368148357 L44,0.000368148357 C46.9718275,-0.0163765749 49.9179251,0.552027375 52.6700783,1.67350152 C55.4222314,2.79497567 57.9265411,4.44755605 60.0400124,6.53688386 C62.1534836,8.62621167 63.8347281,11.1113692 64.9877472,13.8504563 C66.1407663,16.5895434 66.7429792,19.5289159 66.7600021,22.5007439 C66.7229774,28.5017958 64.3048735,34.2426453 60.0371017,38.4616642 C55.76933,42.6806832 50.0010815,45.0326683 44,45.0011807 L31.7099991,45.0011807 C28.7373331,45.0191852 25.7901618,44.4517565 23.0368538,43.3308735 C20.2835457,42.2099905 17.7780559,40.5576194 15.6635237,38.4681607 C13.5489914,36.378702 11.8668529,33.893097 10.7132082,31.1533547 C9.55956352,28.4136124 8.95701946,25.4734185 8.93999958,22.5007439 L8.93999958,22.5007439 Z M17.3500004,13.6507445 C17.3552366,12.6190176 17.5638043,11.5984434 17.9637775,10.6473866 C18.3637508,9.6963298 18.9472838,8.83344755 19.6810017,8.10808852 C20.4147195,7.3827295 21.2842302,6.80912256 22.2398071,6.42007211 C23.1953841,6.03102165 24.2182809,5.83415965 25.25,5.84074453 L50.4399986,5.84074453 C51.4721943,5.83415751 52.49558,6.03094599 53.4517212,6.41987422 C54.4078624,6.80880246 55.2780347,7.38225326 56.0125504,8.10748294 C56.747066,8.83271262 57.3315403,9.69551829 57.7326012,10.6466341 C58.1336621,11.59775 58.3434532,12.6185485 58.3499985,13.6507445 L58.3499985,31.3507443 C58.3434532,32.3829402 58.1336621,33.4037407 57.7326012,34.3548565 C57.3315403,35.3059724 56.747066,36.1687771 56.0125504,36.8940068 C55.2780347,37.6192364 54.4078624,38.1926892 53.4517212,38.5816174 C52.49558,38.9705456 51.4721943,39.1673327 50.4399986,39.1607457 L25.25,39.1607457 C23.1671128,39.1713877 21.1651684,38.3548364 19.6839123,36.8904553 C18.2026561,35.4260742 17.3632233,33.4336164 17.3500004,31.3507443 L17.3500004,13.6507445 Z M52.5900002,15.800745 C52.2981029,14.870301 51.7168496,14.0573103 50.9308548,13.4801255 C50.14486,12.9029406 49.1951577,12.591693 48.2200012,12.591693 C47.2448447,12.591693 46.2951425,12.9029406 45.5091476,13.4801255 C44.7231528,14.0573103 44.1418957,14.870301 43.8499985,15.800745 L43.8499985,15.800745 C43.7862227,15.9633353 43.7523468,16.1361082 43.75,16.3107434 C43.75,16.6608291 43.8890716,16.9965774 44.1366196,17.2441254 C44.3841676,17.4916734 44.7199139,17.6307431 45.0699997,17.6307431 C45.3634889,17.6318914 45.6487297,17.5336948 45.8793182,17.352129 C46.1099068,17.1705632 46.2722736,16.9163132 46.3400002,16.6307431 L46.3400002,16.6307431 C46.4839317,16.2512793 46.7399018,15.9245838 47.0739098,15.6940461 C47.4079178,15.4635083 47.8041555,15.3400402 48.2099991,15.3400402 C48.6158427,15.3400402 49.0120842,15.4635083 49.3460922,15.6940461 C49.6801002,15.9245838 49.9360703,16.2512793 50.0800018,16.6307431 L50.0800018,16.6307431 C50.1170202,16.8135271 50.1923469,16.9863925 50.3010254,17.137949 C50.4097038,17.2895055 50.5492647,17.4163126 50.7105103,17.5100155 C50.8717558,17.6037185 51.0510267,17.6621903 51.2365112,17.6815777 C51.4219957,17.7009651 51.6094842,17.680828 51.7866211,17.6224938 C51.963758,17.5641595 52.1265213,17.4689529 52.2641907,17.3431454 C52.40186,17.2173379 52.5113116,17.0637853 52.5853271,16.8926068 C52.6593427,16.7214283 52.6962451,16.5365091 52.6936035,16.3500328 C52.690962,16.1635566 52.6488343,15.9797585 52.5699997,15.8107453 L52.5900002,15.800745 Z M32.3499985,15.800745 C32.0581012,14.870301 31.4768479,14.0573103 30.6908531,13.4801255 C29.9048583,12.9029406 28.955156,12.591693 27.9799995,12.591693 C27.0048431,12.591693 26.0551408,12.9029406 25.269146,13.4801255 C24.4831511,14.0573103 23.9018978,14.870301 23.6100006,15.800745 L23.6100006,15.800745 C23.5462248,15.9633353 23.5123471,16.1361082 23.5100002,16.3107434 C23.5129818,16.6316402 23.6327622,16.9404625 23.8469372,17.1794453 C24.0611121,17.4184281 24.3550123,17.5712024 24.673666,17.6091957 C24.9923197,17.6471891 25.3139001,17.5677986 25.5782604,17.3858719 C25.8426207,17.2039453 26.0316537,16.9319447 26.1100006,16.6207447 L26.1100006,16.6207447 C26.2539321,16.241281 26.5099003,15.9145846 26.8439083,15.6840468 C27.1779163,15.453509 27.574156,15.33004 27.9799995,15.33004 C28.3858431,15.33004 28.7820847,15.453509 29.1160927,15.6840468 C29.4501007,15.9145846 29.7060689,16.241281 29.8500004,16.6207447 C29.8870187,16.8035288 29.9623493,16.9763923 30.0710278,17.1279488 C30.1797062,17.2795053 30.3192652,17.4063143 30.4805107,17.5000172 C30.6417563,17.5937201 30.8210272,17.6521901 31.0065117,17.6715775 C31.1919962,17.6909649 31.3794846,17.6708297 31.5566216,17.6124955 C31.7337585,17.5541612 31.8965218,17.4589527 32.0341911,17.3331452 C32.1718605,17.2073377 32.2813083,17.0537869 32.3553238,16.8826084 C32.4293393,16.71143 32.4662417,16.5265089 32.4636002,16.3400326 C32.4609586,16.1535563 32.4188347,15.9697583 32.3400002,15.800745 L32.3499985,15.800745 Z M38.2400017,34.0007458 C32.7700019,34.0007458 28.2399998,31.6707444 27.2399998,26.4407444 L49.2799988,26.4407444 C48.2799988,31.6707444 43.7199988,34.0007458 38.2799988,34.0007458 L38.2400017,34.0007458 Z M65.2399979,35.6007443 C65.427458,35.5562743 65.6087971,35.4891151 65.7799988,35.4007473 L73.3700027,31.460743 C74.0491832,31.0589544 74.618325,30.4952669 75.0266342,29.8199864 C75.4349434,29.1447058 75.6697137,28.3788413 75.7099991,27.590744 L75.7099991,17.1007443 C75.6699932,16.315382 75.4339882,15.5525353 75.0235062,14.8817902 C74.6130242,14.2110451 74.041132,13.6537519 73.3600006,13.2607451 L65.8199997,9.4107447 C65.5711047,9.28039457 65.299542,9.19892691 65.0199966,9.17074493 C67.5950177,13.0837903 68.9872185,17.6562891 69.0297852,22.340395 C69.0723518,27.0245009 67.7634845,31.6215513 65.2600021,35.5807476 L65.2399979,35.6007443 Z M10.4399996,35.6007443 C10.2562738,35.5545397 10.0784476,35.4874385 9.90999985,35.4007473 L2.33999991,31.4407444 C1.66081941,31.0389558 1.09167752,30.4752665 0.683368325,29.7999859 C0.275059134,29.1247053 0.0402853936,28.3588409 0,27.5707436 L0,17.1007443 C0.0400058888,16.315382 0.27601409,15.5525353 0.686496079,14.8817902 C1.09697807,14.2110451 1.66886848,13.6537519 2.3499999,13.2607451 L9.92000008,9.4107447 C10.168895,9.28039457 10.4404549,9.19892691 10.7200003,9.17074493 C8.14316273,13.0823148 6.7481934,17.6536308 6.70208216,22.3374691 C6.65597091,27.0213075 7.96067142,31.6192043 10.46,35.5807476 L10.4399996,35.6007443 Z M92.3000031,10.6507445 L102,10.6507445 C105,10.6507445 107.183336,11.3007453 108.550003,12.6007452 C109.224938,13.2429992 109.757158,14.020101 110.112068,14.8815337 C110.466978,15.7429663 110.636632,16.669445 110.610001,17.6007443 L110.610001,29.6007443 C110.63725,30.5330319 110.466889,31.4605323 110.110123,32.3222866 C109.753356,33.184041 109.218263,33.9605382 108.540001,34.6007443 C107.166668,35.9007442 104.986667,36.550745 102,36.550745 L92.3000031,36.550745 L92.3000031,10.550745 L92.3000031,10.6507445 Z M97.2099991,15.0007448 L97.2099991,32.300745 L101.459999,32.300745 C102.633931,32.4256939 103.811159,32.0964977 104.75,31.3807431 C105.429209,30.5704549 105.759978,29.5242113 105.669998,28.4707432 L105.669998,18.8007431 C105.759978,17.747275 105.429209,16.7010334 104.75,15.8907452 C103.811159,15.1749905 102.633931,14.8457962 101.459999,14.9707451 L97.2099991,15.0007448 Z M120.940002,10.6807452 L120.940002,36.6807461 L116,36.6807461 L116,10.6807452 L120.940002,10.6807452 Z M131.889999,36.6807461 L127,36.6807461 L127,10.6807452 L143,10.6807452 L143,15.0007448 L131.889999,15.0007448 L131.889999,21.9107437 L142.169998,21.9107437 L142.169998,26.2407437 L131.889999,26.2407437 L131.889999,36.6207447 L131.889999,36.6807461 Z M152.25,36.6807461 L147.330002,36.6807461 L147.330002,10.6807452 L163.330002,10.6807452 L163.330002,15.0007448 L152.25,15.0007448 L152.25,21.9107437 L162.529999,21.9107437 L162.529999,26.2407437 L152.25,26.2407437 L152.25,36.6207447 L152.25,36.6807461 Z M178.600006,36.6807461 L167.690002,36.6807461 L167.690002,10.6807452 L177.899994,10.6807452 C182.493327,10.6807452 184.796664,12.5274098 184.809998,16.2207432 L184.809998,18.9107437 C184.851532,19.8213183 184.610525,20.7224654 184.119995,21.4907437 C183.551601,22.2291283 182.785216,22.7909201 181.910004,23.1107445 C183.00813,23.3084967 184.000393,23.889677 184.710007,24.7507439 C185.392922,25.6597461 185.745645,26.7743513 185.710007,27.9107437 L185.710007,30.6907444 C185.743711,31.4999024 185.596984,32.3064265 185.280472,33.0518742 C184.963959,33.7973219 184.485586,34.4630243 183.880005,35.0007458 C182.37176,36.1540428 180.493839,36.7159988 178.600006,36.5807476 L178.600006,36.6807461 Z M180.789993,30.0007439 L180.789993,28.0007439 C180.82268,27.6407369 180.781927,27.2778407 180.670197,26.9340535 C180.558466,26.5902662 180.37809,26.2727482 180.139999,26.0007439 C179.552464,25.524874 178.803254,25.2954506 178.050003,25.3607445 L172.600006,25.3607445 L172.600006,32.470747 L177.600006,32.470747 C178.453395,32.5469704 179.308696,32.34716 180.039993,31.9007435 C180.30872,31.6474022 180.513958,31.3342921 180.639053,30.986805 C180.764149,30.6393179 180.805581,30.2672377 180.759995,29.9007435 L180.789993,30.0007439 Z M179.899994,19.1007443 L179.899994,16.8207436 C179.899994,15.4107436 179.029998,14.7007447 177.309998,14.7007447 L172.600006,14.7007447 L172.600006,21.5207444 L177.270004,21.5207444 C179.020004,21.5207444 179.899994,20.7207443 179.899994,19.1007443 L179.899994,19.1007443 Z M209.240005,18.2507439 L209.240005,29.0007439 C209.284114,30.075253 209.098153,31.1467908 208.694595,32.1436138 C208.291037,33.1404369 207.679183,34.0395426 206.899994,34.7807446 C205.339994,36.2607446 202.843337,37.0007458 199.410004,37.0007458 C195.990004,37.0007458 193.489993,36.2707451 191.929993,34.800745 C191.148206,34.0572931 190.534841,33.1549267 190.131195,32.1544361 C189.727549,31.1539456 189.543,30.0785671 189.589996,29.0007439 L189.589996,18.2507439 C189.545888,17.1762348 189.731848,16.1047018 190.135406,15.1078787 C190.538965,14.1110556 191.150804,13.2119471 191.929993,12.4707451 C193.489993,11.0007451 195.990004,10.2707453 199.410004,10.2707453 C202.830004,10.2707453 205.339994,11.0007451 206.899994,12.4707451 C207.679183,13.2119471 208.291037,14.1110556 208.694595,15.1078787 C209.098153,16.1047018 209.284114,17.1762348 209.240005,18.2507439 L209.240005,18.2507439 Z M194.5,18.5307446 L194.5,28.7407437 C194.463205,29.2834871 194.545252,29.8277244 194.740417,30.3354988 C194.935582,30.8432733 195.239172,31.3023612 195.630005,31.6807442 C196.732321,32.4501258 198.071437,32.8043914 199.410004,32.6807461 C200.751394,32.800733 202.092417,32.4468976 203.199997,31.6807442 C203.600095,31.2965713 203.909218,30.8277878 204.104736,30.308712 C204.300255,29.7896363 204.377225,29.2334079 204.330002,28.6807442 L204.330002,18.5307446 C204.366797,17.9880012 204.284749,17.4437638 204.089584,16.9359894 C203.894419,16.428215 203.59083,15.969128 203.199997,15.590745 C202.046291,14.9350267 200.742022,14.5902777 199.414993,14.5902777 C198.087965,14.5902777 196.783711,14.9350267 195.630005,15.590745 C195.239172,15.969128 194.935582,16.428215 194.740417,16.9359894 C194.545252,17.4437638 194.463205,17.9880012 194.5,18.5307446 L194.5,18.5307446 Z M219.789993,36.6207447 L219.789993,15.0007448 L212.539993,15.0007448 L212.539993,10.6507445 L232,10.6507445 L232,15.0007448 L224.699997,15.0007448 L224.699997,36.6207447 L219.789993,36.6207447 Z"></path>
            </g>
        </g>
    </g>
</svg>